<?xml version="1.0"?>
<svg width="640" height="479.99999999999994" xmlns="http://www.w3.org/2000/svg" xmlns:svg="http://www.w3.org/2000/svg">
 <!-- Created with SVG-edit - http://svg-edit.googlecode.com/ -->
 <g>
  <title>Layer 1</title>
  <path d="m181.333344,62.666672c-1.403549,-0.863113 -2.169876,-1.13763 -3.060669,-1.339336c-0.884979,-0.200394 -1.139511,-1.200272 -1.878662,-1.321331c-1.047256,-0.17152 -1.862137,-0.299614 -2.575333,-0.820225c-0.708801,-0.517403 -1.338226,-0.949039 -2.051559,-1.271111c-1.049011,-0.473625 -1.930679,-0.52483 -2.700439,-0.959999c-0.717392,-0.40556 -1.601257,-0.886566 -2.53334,-0.954887c-0.801437,-0.058746 -1.547501,-0.552013 -2.266663,-0.954445c-0.755417,-0.422722 -1.733551,-0.377861 -2.609558,-0.378666c-0.970886,-0.000893 -1.692322,0.023514 -2.458878,-0.113781c-1.080154,-0.193466 -1.851288,-0.593945 -2.664902,-0.840889c-1.050034,-0.318703 -1.838547,-0.363235 -2.552887,-0.376888c-0.9767,-0.018665 -1.825775,-0.001778 -2.856659,-0.001778c-0.738007,0 -1.790451,0 -2.584442,0c-0.758011,0 -1.844452,0 -2.567123,0c-1.083328,0 -1.979324,0 -2.638885,0c-0.975998,0 -2.049225,0.074646 -2.81955,-0.048c-0.961975,-0.15316 -1.604645,-0.542732 -2.310226,-0.815109c-1.012299,-0.390778 -1.873764,-0.46722 -2.848892,-0.470222c-0.688004,-0.002117 -1.799103,0 -2.660217,0c-0.962891,0 -1.703995,0 -2.673111,0c-0.688004,0 -1.805435,-0.081596 -2.688004,0.027779c-0.903,0.111904 -1.531021,0.456638 -2.232887,0.738441c-1.063545,0.427021 -1.95163,0.545547 -2.862442,0.862446c-0.701958,0.244232 -1.443459,0.645084 -2.504448,1.171112c-0.52729,0.261425 -1.260437,0.690819 -2.371552,1.038445c-0.655548,0.205093 -1.591072,0.596943 -2.295334,1.024887c-0.764374,0.464474 -1.727798,0.700863 -2.400002,1.13689c-0.793808,0.514912 -1.529808,0.652382 -2.428444,0.961777c-0.685478,0.236004 -1.567291,0.759007 -2.562004,0.962002c-0.729797,0.148933 -1.718163,0.028404 -2.309113,0.643333c-0.60865,0.633347 -1.214455,0.880222 -2.385773,1.356667c-0.388504,0.158028 -1.220078,0.549946 -2.080002,0.989998c-0.426056,0.218029 -1.611168,0.803307 -2.400002,1.410004c-0.717026,0.551468 -0.858513,1.588676 -1.546661,2.230888c-0.588593,0.549309 -1.195595,0.900291 -1.81778,1.515556c-0.620476,0.613579 -0.470222,1.663109 -0.470222,2.596443c0,0.799995 0.157761,1.787186 -0.222221,2.666664c-0.31778,0.735519 -1.024139,1.455635 -1.10511,2.26667c-0.09272,0.928734 0.000183,1.866684 -0.006004,2.666664c-0.007111,0.919197 -0.631828,1.319321 -1.171333,2.028664c-0.477966,0.628433 -0.162003,1.704674 -0.162003,2.638c0,0.800003 0,1.733337 0,2.666672c0,0.799995 -0.063972,1.735649 0.001778,2.666664c0.056908,0.805801 0.709763,1.518936 1.109337,2.400002c0.3414,0.752792 0.064468,1.787186 0.444443,2.666664c0.31778,0.735527 0.899254,1.483452 1.14489,2.133339c0.364281,0.963783 0.94838,1.588699 1.265778,2.399994c0.360535,0.92157 0.957703,1.529312 1.253334,2.400002c0.25972,0.764915 0.062279,1.779129 0.680885,2.366226c0.625862,0.593979 0.940506,1.403801 1.46067,2.033775c0.587914,0.712021 1.296272,1.11422 1.75,2c0.382942,0.747597 0.574997,1.624207 1.161552,2.266663c0.631981,0.692215 1.33271,1.246788 2.121338,1.663116c0.833145,0.439827 0.965446,1.195831 1.520668,1.93689c0.658333,0.878685 1.285332,1.333328 1.818665,1.866661c0.666664,0.666672 1.200005,1.199997 2,2c0.533333,0.53334 1.199997,1.200005 1.73333,1.733337c0.800003,0.800003 1.333336,1.333336 2,2c0.53334,0.533333 1.292015,1.3806 1.866669,1.83889c0.751266,0.599144 1.661491,0.78334 2.033783,1.508667c0.392181,0.764076 0.890816,1.467415 1.567993,2.11911c0.567497,0.54615 1.490303,1.205147 2.165337,1.599998c0.692917,0.405312 1.540115,0.930305 2.232887,1.466667c0.513741,0.397751 1.314781,0.928604 2,1.333328c1.115685,0.658997 1.597527,1.149994 2.398224,1.619568c0.742249,0.435287 1.361023,1.044342 2.046219,1.491547c0.621826,0.405838 1.705841,0.283539 2.488449,0.517563c0.788757,0.23587 1.705795,0.716965 2.259995,1.437988c0.671249,0.873306 1.06398,1.371399 1.720886,1.685333c1.026733,0.490677 1.938583,0.556458 2.848007,0.876678c0.688873,0.242554 1.392227,0.607162 2.209549,1.171112c0.689346,0.475647 1.519653,0.966934 2.295334,1.270432c0.832947,0.325897 1.421738,1.042435 2.400009,1.235336c0.916107,0.180634 1.750565,-0.125076 2.666656,0.055557c0.978287,0.192886 1.38736,0.935028 2.400009,1.22934c0.899231,0.261337 1.733337,0.076218 2.666672,0.076218c0.933334,0 1.748474,-0.161102 2.66066,0.005997c0.816177,0.149506 1.128006,1.080658 2.087784,1.279343c0.641739,0.132843 1.841995,0.047989 2.583099,0.047989c0.93512,0 1.868454,0 2.668457,0c0.933334,0 1.866653,0 2.666656,0c0.961121,0 1.82222,0 2.700455,0c0.695999,0 1.895996,0 2.569778,0c0.975098,0 1.895996,0 2.774216,0c0.916672,0 2,0 2.581329,0c1.001999,0 1.710007,0 2.751999,0c0.940002,0 1.76001,0 2.666672,0c0.888885,0 1.777771,0 2.656006,0c0.695999,0 1.889999,0 2.631104,0c0.93512,0 1.870224,0.000671 2.611328,0c0.970901,-0.000885 1.692352,0.023682 2.458893,-0.11377c1.078415,-0.193375 1.825165,-0.584503 2.551117,-0.840897c1.116226,-0.394241 1.974884,-0.609329 2.64711,-1.045334c0.793579,-0.514709 1.653717,-0.362976 2.638885,-0.694443c0.725174,-0.243988 1.072113,-1.218079 2.027786,-1.305557c0.750397,-0.068695 1.144943,-0.927216 1.914658,-1.285324c0.803894,-0.374008 1.721848,-0.057434 2.485336,-0.518219c0.705566,-0.425827 1.652771,-0.752808 2.53334,-1.241791c0.576355,-0.320053 1.495392,-0.800812 2.133331,-1.066666c0.867493,-0.361511 1.435364,-0.974487 2.243546,-1.487991c0.652832,-0.414795 1.494568,-1.125565 2.042679,-1.818665c0.480331,-0.607391 1.015244,-1.249268 1.694214,-1.802673c0.782745,-0.637985 1.626389,-0.799377 2.286224,-1.445328c0.538971,-0.527634 1.104965,-1.030777 1.852448,-1.866669c0.458252,-0.512451 0.743652,-1.506714 1.381332,-2.099556c0.628403,-0.584221 0.481079,-1.592262 0.842438,-2.224228c0.425919,-0.74485 1.243225,-1.170341 1.257111,-2.076218c0.012268,-0.799911 -0.117477,-1.741005 0.001785,-2.664894c0.111954,-0.867271 1.13208,-1.121246 1.325546,-2.007774c0.197708,-0.906029 0.006012,-1.860664 0.006012,-2.660667c0,-0.933334 0,-1.866669 0,-2.666664c0,-0.933334 0,-1.866669 0,-2.666672c0,-0.933327 0,-1.866661 0,-2.666664c0,-0.933334 0,-1.866669 0,-2.666664c0,-0.933334 0,-1.866669 0,-2.666672c0,-0.933327 0.285126,-1.958481 -0.076233,-2.590439c-0.425919,-0.74485 -1.24321,-1.170349 -1.257111,-2.076225c-0.012268,-0.799911 0.117493,-1.74099 -0.00177,-2.664886c-0.111954,-0.867271 -1.12532,-1.122765 -1.325562,-2.007782c-0.204697,-0.904686 -0.236664,-1.721779 -0.672668,-2.393997c-0.514709,-0.793579 -0.362976,-1.653717 -0.694443,-2.638893c-0.243988,-0.725174 -1.248566,-1.069809 -1.305557,-2.027771c-0.047516,-0.798592 0.266373,-1.894226 -0.295105,-2.50489c-0.610397,-0.663864 -1.255966,-0.974434 -1.901337,-1.565338c-0.633789,-0.580292 -1.197815,-1.201714 -1.769775,-1.830223c-0.577484,-0.634583 -1.473862,-0.421242 -2.224228,-0.842438c-0.748199,-0.419983 -1.203812,-1.195717 -1.775772,-1.824226c-0.577499,-0.634583 -1.473862,-0.421249 -2.224228,-0.842445c-0.748199,-0.419983 -1.107544,-1.111557 -1.942886,-1.552223c-0.722015,-0.38089 -1.499893,-0.830444 -2.266663,-1.150223c-0.849472,-0.354279 -1.686661,-0.821114 -2.352005,-1.255112c-0.719772,-0.469498 -1.165436,-1.214775 -2.047775,-1.299774c-0.823792,-0.079361 -1.177277,-1.072708 -2.01445,-1.318886c-0.876221,-0.25766 -1.391861,-0.536186 -2.074661,-1.125336c-0.567093,-0.489304 -1.701721,-0.090088 -2.577774,-0.517334c-0.733719,-0.357834 -1.651276,-0.634018 -2.311111,-1.260445c-0.583878,-0.554314 -1.069138,-0.865295 -2.074677,-1.125332c-0.765945,-0.198078 -1.098648,-1.223976 -1.88266,-1.317333c-0.897919,-0.106922 -1.323746,-0.843365 -2.074448,-1.258892c-0.86911,-0.481075 -1.818253,0.134388 -2.709549,-0.090443c-0.767136,-0.193512 -1.098663,-1.223976 -1.882675,-1.317333c-0.897919,-0.106922 -1.323792,-0.843277 -2.074432,-1.258888c-0.86908,-0.481186 -1.826965,-0.085655 -2.590454,-0.546444c-0.705551,-0.425827 -1.469589,-0.77504 -2.39978,-0.863335c-0.823898,-0.078205 -1.270447,-0.862888 -2.014435,-1.31889l-0.919113,-0.014221" id="svg_2" stroke-width="5" stroke="#000000" fill="none"/>
  <path d="m492.000031,61.333336c-1.403564,-0.86311 -2.147461,-1.326221 -3.066681,-1.333332c-0.933289,-0.007221 -1.797882,0.006565 -2.695099,-0.295113c-0.687164,-0.231045 -1.335907,-0.678802 -2.391113,-0.924442c-0.894928,-0.208332 -1.847107,-0.113777 -2.647339,-0.113777c-0.876007,0 -1.846893,0 -2.560883,0c-0.774017,0 -1.840424,-0.028038 -2.638885,0.027775c-0.802673,0.056107 -1.877014,0.327507 -2.666687,0.666668c-0.811432,0.348495 -1.599976,0.772213 -2.399994,1.172222c-0.799988,0.399994 -1.596222,0.80772 -2.393982,1.194c-0.754517,0.365341 -1.650452,0.71711 -2.539337,0.939335c-0.888885,0.222221 -1.547852,0.465656 -2.280884,0.81422c-1.059814,0.503941 -1.836304,0.935505 -2.604462,1.271114c-0.881531,0.385139 -1.633331,0.523537 -2.407104,0.693329c-1.072662,0.235382 -1.716278,0.448029 -2.373322,0.702225c-1.239197,0.479424 -1.916962,0.93502 -2.535126,1.319107c-0.896088,0.556763 -1.487061,0.816589 -2.521332,1.200005c-0.752045,0.278793 -1.944458,0.666664 -2.344452,0.799995c-0.799988,0.26667 -1.600006,0.53334 -2.399994,0.800003c-1.200012,0.400009 -1.998505,0.655922 -2.757324,0.933334c-0.702362,0.256775 -1.806641,0.770058 -2.312897,1.319107c-0.647308,0.702042 -1.477631,0.715324 -2.185333,0.869781c-1.09906,0.239868 -1.63974,0.701714 -2.307129,1.092888c-0.733612,0.429985 -1.49295,0.903938 -2.703979,1.489555c-0.395447,0.191231 -1.196533,0.523453 -2,0.814445c-0.796661,0.288528 -2.002014,0.673141 -2.782013,0.947556c-0.737244,0.259377 -1.546112,0.327095 -2.480225,1.199997c-0.596893,0.557793 -1.071411,1.376099 -1.698883,1.705559c-1.046326,0.549377 -1.837677,0.538887 -2.638885,0.916664c-0.724701,0.341713 -1.624329,0.926262 -2.266663,1.181335c-0.982727,0.390251 -1.466675,0.884453 -2.399994,1.263115c-0.93335,0.37867 -1.424652,0.854828 -2.400024,1.263107c-0.902222,0.377655 -1.542664,0.841827 -2.39975,1.241776c-0.688934,0.321487 -1.234009,0.927994 -1.866913,1.495117c-0.632874,0.567101 -1.289459,1.073677 -1.888,1.711998c-0.60965,0.650177 -1.238953,1.009003 -1.439331,1.893997c-0.201691,0.890785 -0.643738,1.454025 -1.227325,2.106003c-0.536957,0.599884 -0.924683,1.172401 -1.515564,1.81778c-0.580292,0.633781 -1.160675,1.214668 -1.641754,2.070221c-0.323151,0.574669 -0.802643,1.494644 -1.066681,2.133331c-0.351654,0.850571 -0.948608,1.617958 -1.255127,2.400002c-0.376007,0.959274 -1.009766,1.404549 -1.251526,2.400002c-0.22049,0.907959 -0.27005,1.60891 -0.911133,2.203552c-0.560974,0.520317 -0.451385,1.529999 -0.470215,2.329781c-0.024017,1.019508 -0.927307,1.411568 -1.285339,2.181328c-0.373901,0.80394 0.194153,1.72171 -0.062225,2.604446c-0.243378,0.837997 -1.242157,1.190994 -1.319092,2.14756c-0.053497,0.665092 -0.437286,1.561104 -0.863129,2.266663c-0.460785,0.763481 -0.467621,1.733345 -0.470215,2.533333c-0.003021,0.927353 -0.631836,1.452652 -1.171326,2.162003c-0.477966,0.628426 -0.162018,1.704666 -0.162018,2.638c0,0.799995 0,1.73333 0,2.666672c0,0.799988 0,1.733322 0,2.666656c0,0.800003 0,1.733337 0,2.666672c0,0.800003 0,1.733337 0,2.666672c0,0.799988 -0.063965,1.735641 0.001801,2.666656c0.056915,0.805801 0.677521,1.534271 1.109314,2.400009c0.354553,0.710876 1.052307,1.19487 1.52179,1.914658c0.43399,0.665344 0.660858,1.511871 1.631989,1.973343c0.653534,0.310547 1.096405,1.043991 1.88266,1.479111c0.751465,0.415863 1.453949,0.904053 2.11911,1.566223c0.534546,0.532135 1.285309,1.390015 1.866669,1.818665c0.746521,0.550446 1.618835,0.661713 2.400024,1.148438c0.821106,0.511597 1.642975,0.713745 2.399994,1.144897c0.716095,0.407837 1.513641,0.763412 2.399994,1.17688c0.747192,0.348557 1.546478,0.93808 2.209564,1.034897c0.988434,0.144333 2.056885,0.076218 2.842896,0.076218c0.737976,0 1.76886,0 2.617767,0c0.975098,0 1.663116,0 2.774231,0c0.735992,0 1.514648,0 2.579529,0c0.643555,0 1.635559,0 2.786011,0c0.670013,0 1.594452,0 2.54245,0c0.803558,0 1.703094,0 2.175568,0c0.963531,0 2.376099,0.008972 3.244415,-0.005997c0.783295,-0.013489 1.612549,0.262253 2.554688,-0.372665c0.765472,-0.515854 1.27887,-0.95166 2.206207,-0.954666c0.933777,-0.003021 1.696014,0 2.856903,0c0.616882,0 1.608887,0 2.252441,0c1.06311,0 1.950958,0.090332 2.904877,-0.014221c1.023102,-0.112122 1.650116,-0.47023 2.35202,-0.751999c1.063324,-0.426849 1.886108,-0.560013 2.839783,-0.567123c0.774414,-0.005768 1.797546,0.000076 2.49353,0c1.072021,-0.000107 1.788177,0.047165 2.862457,-0.295105c0.703125,-0.22403 1.425171,-0.642288 2.504456,-0.876221c0.776184,-0.168243 1.523987,-0.158997 2.553101,-0.162003c0.774445,-0.002258 1.714661,0.040268 2.647339,-0.000229c0.878479,-0.038132 1.845093,-0.378433 2.533112,-0.666443c0.687988,-0.287994 1.71347,-0.445969 2.666656,-0.888885c0.726624,-0.337631 1.455383,-1.015213 2.133331,-1.096893c0.92688,-0.111664 1.876526,-0.222244 2.561127,-0.708664c0.874084,-0.621033 1.513977,-1.030502 2.205109,-1.438889c0.884583,-0.52269 1.535095,-1.13002 2.165314,-1.486221c0.878876,-0.496765 1.71286,-0.708755 2.401794,-1.146667c0.776764,-0.493729 1.618835,-0.647491 2.399994,-1.134216c0.821106,-0.511597 1.591003,-0.766052 2.161102,-1.460663c0.606171,-0.738586 1.12674,-1.162445 1.774689,-1.572235c1.026978,-0.649521 1.617584,-1.213211 2.462433,-1.621323c0.819244,-0.395752 1.011719,-1.131012 1.544678,-1.83934c0.489594,-0.650681 1.629089,-0.841293 2.323761,-1.52977c0.48764,-0.483292 0.766846,-1.234116 1.33313,-2.047562c0.478516,-0.687363 0.966919,-1.519638 1.270416,-2.295334c0.325897,-0.832947 0.899323,-1.46077 1.263123,-2.400002c0.308014,-0.795204 0.827026,-1.454399 1.466675,-2.133774c0.544403,-0.578217 0.972015,-1.141891 1.466675,-2.223557c0.289703,-0.633514 0.469025,-1.338539 1.06665,-2.531555c0.356659,-0.711975 1.040192,-1.302681 1.285339,-2.311111c0.220764,-0.908127 0.057434,-1.769852 0.518219,-2.533333c0.425812,-0.705544 0.795044,-1.467926 0.863342,-2.400002c0.058746,-0.801453 0.56369,-1.5411 0.954437,-2.266663c0.472778,-0.877899 0.36676,-1.86676 0.378662,-2.666672c0.013885,-0.933647 0.429932,-1.837273 0.766235,-2.447998c0.482147,-0.875572 0.541382,-1.58493 0.565338,-2.506668c0.025177,-0.968781 -0.129761,-1.997597 0.049774,-2.778664c0.193909,-0.843643 0.995728,-1.404503 1.237335,-2.400002c0.220428,-0.908203 0.047974,-1.733337 0.047974,-2.666664c0,-0.933334 0,-1.733337 0,-2.666672c0,-0.933334 0,-1.73333 0,-2.666664c0,-0.933334 0,-1.733337 0,-2.666672c0,-0.933327 0,-1.73333 0,-2.666664c0,-0.933334 0,-1.73333 0,-2.666664c0,-0.933334 0.111206,-1.741699 -0.014221,-2.666672c-0.111084,-0.819092 -0.759186,-1.410889 -1.207092,-2.398216c-0.29892,-0.658913 -1.043671,-1.096581 -1.479126,-1.882668c-0.415375,-0.749863 -0.882782,-1.423813 -1.705536,-1.788223c-0.756104,-0.334892 -1.585632,-0.808853 -2.260681,-1.425331c-0.472382,-0.431396 -1.261444,-1.325027 -1.972229,-1.916672c-0.657684,-0.54744 -1.537445,-0.669739 -2.294434,-1.100883c-0.716095,-0.407845 -1.652313,-0.794167 -2.399994,-1.176895c-0.707184,-0.362 -0.901825,-1.391998 -1.445343,-2.063995c-0.512695,-0.633896 -1.636536,-0.839714 -2.154663,-1.319778c-0.687561,-0.637054 -1.352356,-1.213634 -2.252441,-1.693558c-0.718628,-0.383171 -1.135651,-1.140591 -1.88266,-1.479111c-0.848236,-0.38438 -1.424988,-0.921276 -2.474457,-1.151112c-0.728058,-0.159443 -1.801361,-0.260273 -2.590454,-0.546444c-0.541718,-0.196461 -1.330292,-0.598358 -2.398224,-1.122002c-0.77182,-0.378445 -1.462097,-0.788212 -2.458862,-0.992222c-0.729736,-0.149353 -1.779541,-0.107803 -2.342896,-0.742886c-0.510956,-0.576027 -1.167999,-0.663666 -2.352448,-0.666668c-0.803558,-0.002037 -1.703125,0 -2.175568,0c-0.963562,0 -2.376648,0 -2.82489,0l-0.865784,0l-0.833771,0l-0.812439,0" id="svg_3" stroke-width="5" stroke="#000000" fill="#ffffff"/>
  <path d="m210.666687,85.333336c-1.403564,-0.863106 -2.147491,-1.326218 -3.066666,-1.333328c-0.933304,-0.007217 -1.992767,-0.028549 -2.238892,0.694443c-0.291962,0.857597 -0.049576,1.8041 0.553558,2.491333c0.631302,0.719322 1.58876,0.901268 2.085327,1.480888c0.559097,0.652611 1.444031,0.99556 2.133331,1.432892c0.776428,0.492607 1.617355,0.413368 2.53334,0.594887c0.978088,0.193825 1.387344,0.93502 2.399994,1.229332c0.899231,0.261345 1.733337,0.076225 2.672668,0.076225c0.774445,0 1.797562,0.000076 2.493561,0c1.071777,-0.000114 1.93222,0.048103 2.700439,-0.37867c0.720398,-0.4002 1.728683,-0.741386 2.287994,-1.333336c0.612122,-0.64785 1.333328,-1.152542 1.439331,-1.893997c0.131241,-0.918037 -0.25238,-1.891144 -0.808212,-2.527336c-0.613632,-0.702347 -1.12236,-1.282646 -1.985565,-1.704887c-0.776382,-0.379768 -1.328079,-0.953621 -1.966446,-1.528885c-0.631287,-0.568886 -1.149582,-1.233734 -2.033768,-1.299782c-0.801376,-0.059868 -1.537827,-0.569839 -2.266663,-0.954445c-0.850342,-0.44873 -1.575989,0.201691 -1.600006,1.087997c-0.021667,0.799713 0,1.733337 0,2.666672l0,0.799995l0,0.933334" id="svg_4" stroke-width="5" stroke="#000000" fill="none"/>
  <path d="m414.666687,145.333344c1.327332,-0.939331 1.3974,-1.868881 1.333099,-2.799789c-0.057007,-0.825623 -0.813904,-1.1931 -1.733093,-1.200211c-0.933319,-0.007217 -1.777924,-0.044052 -2.533325,0.378662c-0.719177,0.402435 -1.872284,0.655701 -2.323792,1.430893c-0.433075,0.743561 -0.076233,1.657104 -0.076233,2.590439c0,0.933334 -0.191711,1.754639 0.006012,2.660675c0.193451,0.88652 0.941956,1.381577 1.439331,1.893997c0.631989,0.651108 1.800293,0.262955 2.554657,0.600891c0.731232,0.327591 1.593689,1.048874 2.266663,1.105103c0.930115,0.077713 2.214478,0.390259 2.844452,-0.216217c0.539581,-0.51947 0.222229,-1.64444 0.222229,-2.577774c0,-0.800003 0,-1.733337 0,-2.666672c0,-0.800003 0.266022,-2.001953 -0.476227,-2.457108c-0.733551,-0.449829 -1.657104,-0.076233 -2.590454,-0.076233c-0.933319,0 -1.804535,-0.02562 -2.694885,0.295563c-0.680237,0.245392 -1.500122,0.595428 -2.010864,1.684891c-0.311737,0.664978 -0.242188,1.488113 -0.2258,2.552887c0.012329,0.800323 0.032196,1.623276 0.378662,2.663116c0.256439,0.769653 0.528748,1.637863 1.486237,2.040878c0.864532,0.363892 1.924835,0.044052 2.11911,-0.76622c0.209747,-0.874863 0.065338,-1.818985 -0.099548,-2.492447c-0.247406,-1.010452 -0.825562,-1.64888 -1.352661,-2.407104l-0.386017,-0.671997l-0.433777,-0.920898l-0.310211,-0.963104" id="svg_5" stroke-width="5" stroke="#000000" fill="none"/>
  <path d="m82.666679,172c0,2 -0.145935,2.968414 0.113777,3.733337c0.295631,0.870697 0.981972,1.605515 1.247337,2.32222c0.394028,1.064209 0.724716,1.643784 1.134888,2.307114c0.456505,0.738266 0.973808,1.507828 1.503998,2.304001c0.532921,0.800278 1.066666,1.600006 1.333336,2c0.53334,0.800003 1.333328,2 1.599998,2.400009c0.533325,0.799988 1.066666,1.599991 1.333336,2c0.533325,0.799988 1.332245,2.000504 1.599998,2.398209c0.531189,0.789017 1.061668,1.557419 1.333328,1.925568c0.785683,1.064713 1.329788,1.694 1.838226,2.280655c0.67601,0.780014 1.157211,1.718262 1.648003,2.400009c0.513817,0.71373 1.150833,1.236343 1.60955,2.062668c0.360794,0.649933 0.999779,1.160889 1.761116,1.923111c0.616531,0.617249 0.944,0.944 1.608887,1.608887c0.643555,0.643555 1.476891,1.476883 2.104889,2.104889c0.625778,0.625778 1.322456,1.323792 1.701553,1.673782c0.504234,0.46553 1.637894,1.445618 2.137779,1.869995c0.557777,0.473526 1.169609,0.986252 1.830002,1.529999c0.697311,0.574142 1.428894,1.167236 2.190002,1.770004c0.776634,0.615067 2.366974,1.834106 3.170441,2.423767c0.800117,0.587204 1.609207,1.161621 2.428001,1.728012c0.82476,0.570526 1.665955,1.136627 2.524002,1.703995c0.873482,0.57756 2.691376,1.75296 3.636665,2.357559c0.95871,0.61319 1.921387,1.224365 2.874001,1.830002c0.931381,0.592148 1.830139,1.163162 2.681992,1.709991c0.796097,0.511032 2.167847,1.407288 2.721329,1.784225c0.475586,0.323883 0.878708,0.609726 1.225998,0.856003c0.302032,0.214172 0.568329,0.405334 0.818008,0.567993c0.235809,0.15361 0.732162,0.427933 1.013107,0.557343c0.298553,0.137527 0.618805,0.261917 1.608887,0.666656c0.644821,0.263596 1.71022,0.800003 2.334229,1.200012c0.623993,0.399994 1.689606,0.940384 2.348434,1.199997c0.695755,0.27417 1.415588,0.514587 2.422897,0.933334c0.921265,0.38298 1.482513,0.663818 2.561996,1.199997c0.801056,0.397888 1.333191,0.666931 2.133331,1.066666c1.068268,0.533676 1.607468,0.814896 2.476227,1.199997c0.93898,0.416229 1.635284,0.6633 2.343338,0.933334c1.035889,0.395065 1.952301,0.77272 2.645996,1.206009c0.666672,0.416397 1.731781,1.15419 2.086441,1.355545c0.786209,0.446365 1.643768,0.886215 2.503998,1.292007c0.406052,0.191544 1.734222,0.749298 2.477341,0.918655c0.730103,0.166382 1.687668,0.313217 2.477325,0.504013c0.858673,0.207474 1.730743,0.41243 2.856003,0.857101c0.606873,0.239822 1.496155,0.843658 2.444443,1.333344c0.568283,0.293457 1.236664,0.53508 1.936005,0.799988c0.708664,0.268448 2.041855,0.801895 2.666672,1.066666c0.63385,0.2686 2.062714,0.804031 2.47644,0.933334c0.880905,0.275299 1.810196,0.531906 2.275558,0.666672c0.911041,0.26384 2.147751,0.656296 2.854446,0.933334c0.655823,0.257095 1.585434,0.678101 2.574661,1.066666c0.699539,0.27478 1.42453,0.500214 2.412674,0.933334c0.848618,0.371964 1.482849,0.841187 2.175766,1.199997c1.168274,0.604965 2.010742,0.804352 2.460678,0.933334c0.962708,0.275986 1.473511,0.401962 3.056,0.800003c0.532715,0.133987 1.588562,0.397827 2.104889,0.533325c1.000214,0.262482 1.485123,0.371323 2.783997,0.800003c0.75769,0.250061 1.748993,0.669037 2.375336,0.933334c0.956482,0.403595 1.642883,0.679199 2.369553,0.919128c1.089096,0.359589 2.141571,0.607269 2.787552,0.702209c0.909088,0.133606 1.524734,0.134796 2.807556,0.407318c0.726181,0.154266 1.49353,0.398468 2.320007,0.644012c0.433441,0.128784 1.814743,0.530151 2.853989,0.812012c0.587021,0.15921 1.23613,0.331573 1.958008,0.526001c0.807465,0.217499 1.712906,0.460693 3.861328,1.056c1.262543,0.349854 2.629105,0.735016 4.074005,1.138c1.493774,0.416595 3.008484,0.837341 4.518005,1.246002c1.473175,0.398834 2.878983,0.792297 5.40799,1.393768c1.059906,0.252075 1.99147,0.443207 2.806,0.589996c0.709274,0.127808 1.332489,0.218536 1.882004,0.290009c0.490112,0.063751 0.939407,0.098938 1.756439,0.23111c0.401627,0.064972 0.802734,0.154297 1.206009,0.253998c0.40921,0.101166 0.822174,0.216827 1.241989,0.337982c0.428635,0.123688 0.864548,0.258514 1.774231,0.519135c0.47226,0.135315 0.955795,0.267395 1.447998,0.393982c0.496246,0.127625 0.995651,0.248444 1.496002,0.358002c0.496124,0.108612 1.943527,0.371063 2.855103,0.46933c0.441208,0.047546 1.313217,0.098328 2.182236,0.18222c1.354218,0.130737 1.82782,0.211029 2.806,0.406006c1.02124,0.203552 1.53891,0.334229 2.592224,0.592224c1.065857,0.261078 1.598328,0.396942 2.658905,0.664886c0.525269,0.13269 1.558685,0.397369 2.06311,0.533325c1.456055,0.392456 2.36026,0.666229 3.213989,0.919128c0.406494,0.120422 1.540039,0.467377 2.567108,0.652435c0.621582,0.112 1.536896,0.148407 2.783997,0.384003c0.698792,0.132019 1.440735,0.356598 2.240021,0.59201c0.854126,0.251556 1.75824,0.525482 2.716431,0.783997c0.490662,0.132385 1.485535,0.385559 2.484436,0.592224c0.490448,0.101471 1.907349,0.323486 2.794006,0.406006c0.847687,0.078888 1.671356,0.130676 2.074463,0.18222c1.205841,0.154205 2.005219,0.351929 2.801758,0.582428c0.80368,0.232574 1.998413,0.643707 2.800018,0.903778c0.798431,0.259064 1.593811,0.51355 2.399994,0.688019c1.192139,0.257996 2,0.310211 2.799988,0.380432c0.800018,0.070221 2.003418,0.20578 2.798218,0.378662c0.79129,0.172119 1.550049,0.402832 2.288025,0.576019c1.013947,0.237946 1.947998,0.33374 2.547546,0.412415c1.258362,0.165131 1.94693,0.343811 2.680878,0.533356c0.766541,0.197968 1.547485,0.42569 2.751556,0.604431c0.785156,0.116547 1.55481,0.092529 2.572906,0.273773c1.087555,0.193604 1.701202,0.612488 2.431976,0.842682c0.927368,0.292114 1.745483,0.309479 2.623352,0.378662c0.904358,0.071289 2.200012,0.197418 2.946442,0.378662c0.683197,0.165894 1.295044,0.457489 2.581329,0.732452c0.682831,0.145966 1.411011,0.192078 2.507568,0.216217c1.047729,0.023071 1.691345,-0.025146 2.575775,0.033783c0.828613,0.055206 1.894623,0.361053 2.75,0.638885c0.627838,0.203918 1.719513,0.467896 2.56842,0.552887c0.908081,0.090912 1.375854,0.094757 2.302246,0.107788c1.295868,0.018219 2.044434,0.005981 2.990448,0.005981c0.765991,0 1.752441,0 2.496429,0c0.977112,0 1.921112,0 2.585999,0c1.223114,0 2.133331,0 2.741333,0c0.983551,0 1.955566,0 2.688019,0c0.775085,0 1.971313,0 2.765533,0c0.778229,0 1.529785,0 2.910675,0c0.61911,0 1.48111,0 2.562012,0c0.806,0 1.64798,0 2.247101,0c1.345764,0 2.167114,0 2.641785,0c1.11734,0 1.776001,0.000183 3.333313,0c0.91156,-0.000122 1.905792,0.000031 2.972015,-0.005981c1.127563,-0.006348 2.305847,-0.018127 3.523987,-0.042023c1.24765,-0.024475 2.514709,-0.046082 5.05957,-0.174194c1.258972,-0.063385 2.494751,-0.151764 3.697998,-0.254028c1.162994,-0.098846 2.275055,-0.211212 3.325989,-0.337982c0.983276,-0.118591 1.892151,-0.221924 3.420441,-0.519104c0.618713,-0.1203 1.144135,-0.25766 1.59201,-0.400024c0.394592,-0.125427 0.742126,-0.26474 1.063995,-0.399994c0.312805,-0.13147 0.622437,-0.285919 1.343994,-0.533325c0.421387,-0.14447 0.893036,-0.269623 1.39801,-0.394012c0.527924,-0.130035 1.073486,-0.248505 1.626007,-0.358002c0.548401,-0.108704 1.083984,-0.215576 2.087097,-0.3591c0.858734,-0.122864 1.946991,-0.201935 2.591553,-0.29245c1.310242,-0.184021 2.020477,-0.397644 2.769562,-0.624207c0.780914,-0.236206 1.971222,-0.641907 2.772217,-0.903778c0.399536,-0.130615 1.194061,-0.397186 2,-0.592224c1.192169,-0.288513 1.997803,-0.368561 2.785797,-0.442444c0.765808,-0.071777 2.200592,-0.224457 2.833771,-0.414215c0.900421,-0.269836 1.437469,-0.566345 2.514008,-1.085999c0.81131,-0.391632 1.361328,-0.696045 2.621979,-0.978027c0.681702,-0.152496 1.413086,-0.173523 2.144012,-0.255981c1.4151,-0.159637 2.063904,-0.322266 2.967102,-0.660675c0.609955,-0.228546 1.551361,-0.650146 2.247131,-0.903778c0.730011,-0.266113 1.493958,-0.514465 2.287994,-0.687988c1.189728,-0.259979 1.992584,-0.306274 2.770447,-0.380463c1.114532,-0.106323 2.138977,-0.275299 2.76355,-0.476227c0.956299,-0.307648 1.615173,-0.616852 2.787781,-0.990204c0.877838,-0.27948 1.340851,-0.398956 2.275543,-0.618896c0.907349,-0.213501 2.142883,-0.426971 2.854462,-0.511108c0.651215,-0.076996 1.595764,-0.153503 2.57489,-0.365326c0.713257,-0.154327 1.431519,-0.398102 2.526215,-0.659576c1.011292,-0.241547 1.643707,-0.292877 2.545776,-0.412445c1.258148,-0.166748 1.949524,-0.336395 2.680878,-0.547546c0.769409,-0.222137 1.553131,-0.489105 2.751801,-0.885101c0.793793,-0.262238 1.567596,-0.523163 2.323975,-0.723999c1.047882,-0.278229 1.69632,-0.360229 2.581787,-0.476227c0.826508,-0.108276 1.901886,-0.365997 2.722229,-0.694458c0.585999,-0.234619 1.520874,-0.657715 2.575775,-1.032867c0.72525,-0.257935 1.450409,-0.504456 2.507568,-0.717133c0.939301,-0.188965 1.535156,-0.177032 2.35376,-0.334198c1.081482,-0.207642 1.854919,-0.595428 2.668457,-0.842682c1.053619,-0.320221 1.61731,-0.32196 2.476227,-0.448883c1.291107,-0.190796 1.997711,-0.393951 2.723755,-0.624237c0.733765,-0.232758 1.77887,-0.636322 2.419556,-0.903778c0.887512,-0.370453 1.699188,-0.745544 2.780457,-0.956421c0.792847,-0.154633 1.612427,-0.176392 2.401764,-0.40802c0.929993,-0.272888 1.715607,-0.66214 2.208008,-0.871979c0.567139,-0.241699 1.967346,-0.833588 2.817566,-1.183777c0.932831,-0.384216 1.927795,-0.787842 2.962006,-1.202011c1.04892,-0.420059 2.091553,-0.83252 3.105988,-1.225998c0.960693,-0.372635 2.636658,-1.001816 3.313568,-1.239334c0.567749,-0.199203 1.044525,-0.354416 1.440002,-0.484009c0.328949,-0.107788 0.880188,-0.228027 1.646423,-0.753998c0.729065,-0.500443 1.171814,-1.006699 1.706451,-1.432663c1.039185,-0.827972 1.571777,-1.176315 2.398224,-1.494659c1.039124,-0.400253 1.862488,-0.392609 2.590454,-0.552444c1.051514,-0.230881 1.685913,-0.779663 2.638,-1.396454c0.656342,-0.425186 1.392761,-0.762772 2.209778,-1.333328c0.718323,-0.501617 1.191101,-0.95813 2.00708,-1.466675c0.675415,-0.420914 1.817932,-1.04213 2.345093,-1.46666c0.627319,-0.505188 1.276245,-1.200012 1.942871,-1.866669c0.666687,-0.666687 1.200012,-1.199997 1.866699,-1.866669c0.666687,-0.666672 1.291931,-1.380646 1.866638,-1.838882c0.751465,-0.599228 1.658569,-0.665619 2.400024,-1.17067c0.737,-0.502014 1.333313,-1.257126 1.866638,-1.790451c0.666687,-0.666672 1.333374,-1.333313 2.003601,-2.003555c0.451965,-0.451996 1.025696,-1.022308 1.786621,-1.78688c0.618347,-0.621292 1.279846,-1.300873 1.608887,-1.656677c0.65033,-0.703201 1.492981,-1.71286 1.915161,-2.337326c0.545044,-0.806168 1.080017,-1.73085 1.479736,-2.272675c0.551025,-0.746964 0.757446,-1.654358 1.409607,-2.272659c0.636292,-0.603287 0.934387,-1.267334 1.24353,-2.048889c0.278137,-0.703278 0.660461,-1.395309 1.346863,-2.345108c0.445618,-0.616608 0.796448,-1.614914 1.409607,-2.278671c0.555176,-0.600998 0.526672,-1.318359 1.085327,-2.286438c0.373413,-0.647049 0.949951,-1.218201 1.192871,-2.072891c0.300659,-1.057846 0.659058,-1.585648 1.279358,-2.371552c0.428894,-0.543365 1.09967,-1.322296 1.635315,-2.133347c0.347595,-0.526367 0.82196,-1.353668 1.43219,-2.133331c0.429138,-0.548264 1.182739,-1.336075 1.706482,-1.866669c0.793579,-0.803955 1.330444,-1.317093 1.809326,-1.838882c0.642944,-0.700562 0.990356,-1.855804 1.611084,-2.472229c0.571289,-0.567337 1.023438,-1.105896 1.593323,-1.961548c0.446472,-0.670395 1.276123,-1.359482 1.727356,-1.797562c0.481079,-0.467087 1.23761,-1.179657 2.056702,-1.767776c0.753357,-0.540924 1.57135,-0.843231 2.174622,-1.626892c0.584106,-0.758713 1.05365,-1.272583 1.629333,-1.931549c0.525391,-0.601395 1.417114,-1.046448 1.796448,-1.618668c0.423584,-0.638977 1.043518,-1.691376 1.600037,-2.304001c0.640869,-0.705414 1.246399,-1.207962 1.866638,-2.103104c0.433716,-0.625961 0.760742,-1.36908 1.333313,-2.222229c0.500122,-0.745209 0.969421,-1.202072 1.600037,-2.200882c0.424866,-0.672928 0.75647,-1.406876 1.333313,-2.174225c0.497314,-0.661545 1.275513,-1.250763 1.818665,-1.980453c0.552917,-0.742783 0.817261,-1.612991 1.520691,-1.93689c0.805176,-0.370728 1.202454,-1.0737 1.727295,-1.901993c0.45459,-0.717407 1.293701,-0.215149 1.331604,0.487778c0.054993,1.019852 0.00177,1.717331 0.00177,2.789108c0,0.814453 0,1.774002 0,2.447784c0,0.9711 0,1.9151 0,2.580002c0,1.223099 0,2.104889 0,3.000885c0,0.800003 0,1.733337 0,2.666656c0,0.800003 0,1.733337 0,2.666672c0,0.800003 0,1.739334 0,2.513779c0,1.023117 0.029541,1.719528 -0.000244,2.791107c-0.023987,0.86322 -0.296692,1.789734 -0.566895,2.476456c-0.297974,0.757217 -0.63855,1.814209 -0.718201,2.604431c-0.074097,0.735474 -0.048035,1.76712 -0.048035,2.679123c0,0.844437 0.003357,1.676437 -0.000183,2.620438c-0.002991,0.792023 0.002502,1.650238 -0.075989,2.503998c-0.105591,1.148438 -0.413879,1.98558 -0.690002,2.664001c-0.371948,0.91391 -0.504639,1.825607 -0.539368,2.507782c-0.036011,0.707413 -0.027771,2.076889 -0.027771,2.695999c0,0.862 0.01709,1.943192 -0.005981,2.748886c-0.024109,0.842712 -0.205139,2.08551 -0.372681,2.772675c-0.176697,0.724716 -0.409058,1.448959 -0.575989,2.175995c-0.30426,1.324905 -0.348816,1.944229 -0.372681,2.848892c-0.025085,0.951691 0.001282,2.000519 -0.033752,2.729782c-0.035095,0.73053 -0.161804,1.786926 -0.442444,2.72377c-0.176208,0.588226 -0.543396,1.394791 -0.75116,2.477997c-0.156982,0.818649 -0.195679,1.717712 -0.407104,2.693344c-0.154541,0.713211 -0.387024,1.434219 -0.567993,2.167999c-0.337402,1.367844 -0.332703,1.999023 -0.540405,3.054657c-0.17041,0.866302 -0.713379,1.499512 -1.040894,2.437775c-0.300659,0.861176 -0.229858,1.66568 -0.517334,2.711121c-0.22406,0.814743 -0.538452,1.313873 -0.81604,2.399994c-0.20166,0.78894 -0.18573,1.614838 -0.444397,2.666672c-0.200439,0.815079 -0.587708,1.602081 -0.846252,2.133331c-0.521118,1.070923 -0.9552,1.848343 -1.217773,2.666672c-0.33551,1.045685 -0.308105,1.85405 -0.492432,2.552872c-0.267883,1.015594 -0.763428,1.518829 -1.443542,2.424896c-0.431641,0.575073 -0.884399,1.233246 -1.344055,1.936005c-0.461304,0.705292 -1.079712,1.719757 -1.424194,2.343323c-0.472961,0.856049 -0.728516,1.414185 -1.278015,2.476227c-0.416504,0.804993 -0.700317,1.363281 -1.493347,2.399994c-0.420776,0.550079 -0.926453,1.048584 -1.592834,1.866669c-0.637817,0.783051 -1.126038,1.588593 -1.431152,2.085358c-0.670959,1.092499 -1.083801,1.624908 -1.727966,2.293335c-0.571472,0.592987 -1.261475,1.261871 -1.719116,1.76886c-0.463501,0.513489 -1.258301,1.58374 -1.600037,2.119141c-0.508728,0.796997 -1.035156,1.617462 -1.709961,2.399994c-0.470703,0.545898 -0.995605,1.067505 -1.790466,1.866669c-0.532776,0.535645 -1.074463,1.073639 -1.599976,1.64798c-0.541443,0.591766 -1.334656,1.579254 -1.866699,2.282898c-0.534607,0.707031 -1.021484,1.431519 -1.866638,2.291321c-0.515991,0.524933 -1.148071,0.983887 -1.840027,1.600006c-0.414001,0.368652 -0.882446,0.798981 -1.937744,1.955566c-0.643433,0.7052 -1.317444,1.515198 -2.033997,2.384003c-0.746704,0.905334 -1.495117,1.837158 -2.238037,2.768005c-0.724182,0.90741 -1.40564,1.777496 -2.616882,3.292419c-0.493408,0.617126 -0.919678,1.140564 -1.288025,1.586029c-0.318054,0.384644 -0.600891,0.719482 -0.855957,1.021973c-0.239197,0.283722 -0.477844,0.55957 -0.967102,1.1698c-0.589111,0.734772 -1.250732,1.597107 -1.611145,2.055542c-0.372009,0.473145 -0.739258,0.967255 -1.944458,2.388885c-0.394226,0.464996 -0.795837,0.910614 -1.585754,1.774231c-0.385315,0.421295 -1.143677,1.237 -1.500427,1.64621c-1.035095,1.187256 -1.338562,1.5961 -1.932434,2.387573c-0.572144,0.762482 -0.821716,1.15387 -1.64801,2.191986c-0.518982,0.652008 -1.061584,1.233002 -1.552002,1.808014c-0.909607,1.066498 -1.28186,1.608398 -1.781372,2.441986c-0.345581,0.57666 -0.882263,1.53186 -1.311951,2.21579c-0.448303,0.713654 -0.911316,1.414764 -1.376038,2.063995c-0.604492,0.844543 -1.15564,1.482758 -1.648834,2.099548c-0.775452,0.969818 -1.206055,1.601959 -1.663116,2.287354c-0.46936,0.703857 -1.118317,1.74585 -1.486237,2.391754c-0.339111,0.595367 -0.775635,1.440521 -1.18045,2.247131c-0.401184,0.799377 -0.799622,1.600189 -1.06665,2.133331c-0.534393,1.067017 -0.939911,1.879791 -1.276215,2.399994c-0.708649,1.0961 -1.195282,1.598907 -1.657135,2.133331c-0.689911,0.79834 -1.312714,1.594818 -1.663086,2.133331c-0.515656,0.792542 -1.216339,1.874329 -1.648895,2.399994c-0.445496,0.541412 -0.961975,1.034149 -1.799103,2.133331c-0.395081,0.518738 -0.86853,1.329407 -1.149567,1.866669c-0.554047,1.059113 -0.939331,1.866669 -1.205994,2.400024c-0.533325,1.06665 -0.926056,1.874023 -1.227783,2.399994c-0.46579,0.81192 -1.050598,1.61441 -1.739349,2.385773c-0.454895,0.50946 -1.354584,1.381744 -1.889984,1.944c-0.471497,0.495148 -1.155853,1.424835 -1.542908,2.118225c-0.276001,0.494446 -0.777466,1.564087 -1.223999,2.369995c-0.337006,0.608246 -0.803833,1.285309 -1.097778,1.656677c-1.087769,1.374329 -1.59024,1.86203 -2.092438,2.396667c-0.518158,0.551666 -1.051117,1.102173 -1.583984,1.645996c-0.519653,0.530365 -1.02002,1.033295 -2.287354,2.301544c-0.615326,0.615784 -1.098114,1.097443 -1.687775,1.687775c-0.805786,0.806671 -1.282806,1.25473 -1.956421,2.032684c-0.670837,0.77478 -1.010406,1.335327 -1.536896,2.099548c-0.498444,0.723511 -1.301453,1.528992 -1.76712,1.846436c-0.681244,0.464417 -1.757599,1.076202 -2.205109,1.54245c-0.766022,0.798126 -1.08609,1.514008 -1.494446,2.205109c-0.522705,0.884613 -0.966736,1.721954 -1.866669,2.211548c-0.617279,0.335815 -1.650635,0.553558 -2.133331,1.084442c-0.753235,0.82843 -1.051727,1.580383 -1.466675,2.267578c-0.515015,0.852875 -1.054962,1.520508 -1.733337,2.203552c-0.524445,0.528076 -1.424652,0.926025 -2.085327,1.367096c-0.731903,0.488617 -0.936981,1.587372 -1.395538,2.099579c-0.747101,0.834534 -1.285095,1.348663 -2.11734,1.754639c-0.817719,0.398895 -1.011719,1.131042 -1.544678,1.839355c-0.489594,0.650665 -1.582977,0.818024 -2.460663,1.321533c-0.684082,0.392456 -1.506012,1.175476 -2.085327,1.596466c-0.629425,0.457428 -1.289856,0.887848 -1.839996,1.375977c-0.843445,0.748383 -1.204895,1.682251 -2,2.012451c-0.865173,0.359314 -1.589752,0.514221 -2.267578,0.905579c-1.053864,0.608459 -1.582001,1.309143 -2.470215,1.613556c-0.76416,0.261902 -1.634369,0.047119 -2.622223,0.335999c-0.665924,0.194733 -1.550903,0.714111 -2.415771,0.949097c-0.798798,0.21701 -1.815857,0.004242 -2.695343,0.384216c-0.735504,0.31778 -1.455597,1.02417 -2.266663,1.105133c-0.928711,0.092712 -1.866882,0.005981 -2.581329,0.005981c-1.130676,0 -1.818726,-0.010956 -2.929779,0c-0.721863,0.007111 -1.780151,0.216034 -2.431763,0.470215c-0.740784,0.289001 -1.784271,0.682068 -2.620453,0.786896c-0.639038,0.080109 -1.417786,0.073212 -2.947784,0.076233c-0.63089,0.001251 -1.313782,0 -2.033997,0c-0.742889,0 -1.493774,0 -2.238007,0c-0.72287,0 -2.616913,-0.007324 -3.539551,0.00177c-0.698761,0.006897 -1.539978,0.055725 -2.410675,0.220459c-0.742706,0.140533 -1.595306,0.35025 -2.527985,0.543976c-0.479858,0.09967 -1.914337,0.364441 -2.82489,0.453339c-0.864166,0.084381 -1.699493,0.105103 -2.511993,0.112c-1.201752,0.010223 -2.002258,-0.005524 -2.801788,0.029572c-0.80069,0.035126 -2.002747,0.180969 -2.798218,0.350891c-0.397278,0.084869 -1.550018,0.402832 -2.287994,0.575989c-1.01416,0.237976 -1.961212,0.342041 -2.595581,0.412445c-0.677643,0.075195 -1.842957,0.255432 -2.725311,0.436432c-0.927521,0.190277 -1.389252,0.309753 -2.302216,0.484467c-1.230377,0.235443 -1.950775,0.303345 -2.958221,0.412445c-0.690186,0.074738 -1.857056,0.257111 -2.745575,0.436432c-0.469116,0.094666 -1.431427,0.309814 -2.410004,0.484436c-0.952332,0.169952 -1.861053,0.269745 -2.714661,0.34491c-0.799744,0.070435 -1.557495,0.09317 -2.567322,0.328888c-0.954834,0.22287 -1.569122,0.500824 -2.253998,0.659546c-1.154114,0.267487 -2.053864,0.310577 -3.002014,0.378662c-0.485901,0.034882 -1.467804,0.071747 -2.877563,0.295349c-0.455109,0.072174 -1.356506,0.283905 -2.291107,0.51889c-0.493164,0.123993 -2.136108,0.522736 -2.755341,0.652222c-0.648315,0.13559 -1.318787,0.265015 -2.001984,0.385986c-1.362122,0.24118 -2.025116,0.344055 -2.663116,0.433777c-1.666748,0.234436 -2.131805,0.2659 -3.327545,0.380432c-0.717499,0.068726 -1.834656,0.21524 -2.681335,0.378693c-0.454742,0.087799 -1.400726,0.294434 -2.376678,0.484436c-0.486725,0.094757 -1.900879,0.326202 -2.794006,0.393982c-0.869049,0.065979 -1.303925,0.067596 -2.18222,0.074463c-1.383514,0.010803 -2.3703,0.003754 -2.883545,0.015991c-1.066925,0.025421 -1.620758,0.052002 -2.186676,0.099548c-1.783813,0.149841 -2.407196,0.264313 -3.057312,0.356445c-0.679657,0.096313 -1.39328,0.20047 -2.14801,0.296021c-0.799042,0.101166 -1.64798,0.211609 -3.52356,0.344879c-1.030273,0.073212 -2.115417,0.113312 -3.23999,0.152008c-1.151031,0.039612 -2.315582,0.068695 -3.480011,0.104004c-1.151184,0.034912 -2.276947,0.053833 -4.391113,0.188446c-0.968994,0.061707 -1.879639,0.15155 -2.742004,0.247986c-0.824768,0.092224 -1.619019,0.197083 -2.393982,0.29599c-0.76413,0.097534 -1.525238,0.208771 -3.086243,0.34491c-0.811798,0.070801 -1.647766,0.113342 -2.501984,0.145996c-0.8685,0.033203 -1.747986,0.051086 -2.634003,0.061981c-0.888641,0.010925 -1.776001,0.013336 -3.53067,0.014221c-0.859772,0.000427 -1.704895,0 -2.533997,0c-0.811768,0 -1.604889,0 -2.377991,0c-0.751801,0 -1.480896,-0.000244 -2.865784,0c-0.654449,0.000122 -1.28894,-0.000244 -1.910004,0.006012c-0.614471,0.006195 -1.229004,0.018066 -1.850006,0.041992c-0.634583,0.024445 -1.289978,0.05246 -2.684448,0.174225c-0.752655,0.065704 -1.536163,0.154755 -2.343994,0.248016c-0.824219,0.095154 -1.655914,0.197296 -2.488007,0.29599c-0.823914,0.097717 -1.630707,0.201538 -3.167999,0.344879c-0.713654,0.066528 -1.393646,0.112183 -2.044006,0.152008c-0.626099,0.03833 -1.233856,0.068665 -1.827972,0.104004c-0.586334,0.034882 -1.171356,0.062531 -2.35025,0.188446c-0.606903,0.064819 -1.22168,0.153931 -1.84198,0.247986c-0.622406,0.094391 -1.85376,0.297516 -2.455994,0.392914c-0.587128,0.093018 -2.221893,0.314758 -2.718903,0.356445c-0.930603,0.078064 -1.799042,0.105164 -2.623993,0.112c-1.203522,0.009979 -2.003571,0.00177 -2.803558,0.00177c-0.800018,0 -2,0 -2.800018,0c-0.800003,0 -1.600006,-0.000061 -2.400009,0c-1.199997,0.000122 -2.000473,-0.007294 -2.799988,0.027771c-0.800705,0.035126 -2.003143,0.179199 -2.800003,0.350891c-0.803467,0.173126 -1.595322,0.408661 -2.400009,0.575989c-1.193649,0.248199 -1.993286,0.315369 -2.772217,0.350891c-0.751099,0.034241 -1.805557,0.027771 -2.757553,0.027771c-0.603561,0 -1.515564,0 -2.498672,0c-1.071991,0 -1.804443,0 -2.526215,0c-1.333344,0 -1.944885,0 -2.848892,0c-0.951996,0 -2,0 -2.729782,0c-0.729767,0 -1.777771,0 -2.72377,0c-0.862,0 -1.943085,0.012817 -2.748886,-0.005981c-0.555389,-0.01297 -1.447617,-0.075623 -2.422455,-0.289124c-1.080353,-0.236603 -1.800354,-0.487549 -2.526215,-0.659546c-1.011703,-0.239716 -1.944275,-0.344147 -2.545776,-0.364441c-1.254471,-0.042358 -1.946899,-0.006042 -2.680893,-0.028442c-0.766602,-0.023407 -1.560104,-0.061737 -2.753342,-0.281128c-0.839951,-0.154419 -1.764755,-0.401611 -2.286652,-0.51889c-0.568726,-0.127808 -2.644531,-0.524261 -3.482452,-0.652222c-0.898956,-0.137299 -1.844482,-0.26413 -2.817993,-0.385986c-0.983368,-0.123077 -1.960617,-0.235352 -2.914001,-0.338013c-0.91153,-0.098145 -2.54184,-0.256012 -3.230896,-0.314423c-0.608734,-0.051605 -1.151123,-0.0914 -1.639999,-0.128021c-0.448898,-0.03363 -1.282516,-0.084076 -2.559998,-0.255981c-0.487091,-0.065552 -1.562302,-0.252319 -2.143997,-0.359131c-0.606323,-0.111328 -1.232422,-0.230804 -2.528,-0.487091c-1.32843,-0.262787 -1.994492,-0.39798 -2.659561,-0.531555c-0.662491,-0.133087 -1.974167,-0.399231 -2.620438,-0.533356c-0.638611,-0.132538 -1.268738,-0.261322 -3.086227,-0.666443c-0.583496,-0.130066 -1.156372,-0.269592 -2.295105,-0.505768c-0.566238,-0.117432 -1.131668,-0.257385 -2.888901,-0.472229c-0.604721,-0.073944 -1.222778,-0.115814 -2.47821,-0.188446c-0.632736,-0.036591 -1.266266,-0.059906 -1.896011,-0.104004c-1.849701,-0.129547 -2.442917,-0.216309 -3.023102,-0.310211c-1.135361,-0.183746 -1.68779,-0.306183 -2.774445,-0.558899c-0.538483,-0.125214 -2.139481,-0.527618 -2.674454,-0.660645c-0.537476,-0.133636 -1.625656,-0.401428 -2.17955,-0.533356c-1.13176,-0.269562 -2.306961,-0.536072 -2.913773,-0.666443c-1.240585,-0.26651 -1.871399,-0.389221 -2.504898,-0.505768c-0.632309,-0.116333 -1.885956,-0.330658 -3.111115,-0.472229c-0.592682,-0.068481 -1.745911,-0.153076 -2.307556,-0.188446c-0.553482,-0.034851 -1.642853,-0.094238 -2.17955,-0.145782c-1.605072,-0.154144 -2.138931,-0.257721 -3.216003,-0.46933c-0.547989,-0.107666 -1.661957,-0.358185 -2.23288,-0.487091c-1.175018,-0.265289 -2.396027,-0.53186 -3.01712,-0.658905c-0.621582,-0.127167 -1.239609,-0.254669 -2.455994,-0.463104c-0.586548,-0.100494 -2.222458,-0.318878 -2.722443,-0.364227c-0.955719,-0.08667 -1.892029,-0.140137 -2.364441,-0.18222c-1.505699,-0.134094 -2.051643,-0.214935 -3.206001,-0.406006c-0.602898,-0.099792 -1.215324,-0.214874 -1.834,-0.337982c-1.244019,-0.247559 -2.464432,-0.517242 -3.057556,-0.652466c-1.153297,-0.26297 -1.714256,-0.398926 -2.267555,-0.533325c-1.088966,-0.264526 -1.625923,-0.400299 -3.227997,-0.799988c-0.534866,-0.133423 -1.613815,-0.400757 -2.160889,-0.533356c-0.553368,-0.134125 -1.685127,-0.4039 -2.861115,-0.666656c-0.605774,-0.135345 -1.847946,-0.400269 -2.478226,-0.533325c-0.632835,-0.133606 -1.266495,-0.263306 -2.520882,-0.533325c-1.223824,-0.263428 -1.817513,-0.395477 -2.963112,-0.666687c-0.553864,-0.131134 -1.620903,-0.396576 -2.133339,-0.533325c-1.462624,-0.390289 -1.921349,-0.530304 -2.811996,-0.799988c-0.871117,-0.263763 -1.739685,-0.535919 -2.18222,-0.666687c-1.380775,-0.40802 -1.86631,-0.534637 -2.855118,-0.799988c-0.998749,-0.268005 -1.49855,-0.390869 -2.943993,-0.800018c-0.461502,-0.130646 -1.359955,-0.399994 -2.25,-0.694427c-0.455025,-0.150513 -1.400085,-0.480377 -2.416672,-0.861115c-1.113419,-0.416992 -1.690681,-0.646301 -2.275551,-0.878235c-1.165817,-0.462341 -1.731224,-0.693054 -2.275558,-0.920868c-1.455299,-0.60907 -2.253868,-0.964081 -2.948891,-1.312012c-0.652367,-0.326599 -1.612335,-0.886871 -2.302666,-1.312012c-0.735542,-0.452972 -1.492256,-0.935333 -2.288002,-1.375977c-0.790352,-0.437653 -1.592224,-0.80838 -2.383995,-1.130676c-0.762291,-0.310303 -1.510925,-0.553955 -2.519333,-0.981781c-0.952507,-0.404083 -1.58651,-0.745911 -2.254005,-1.160431c-1.18235,-0.734253 -1.598427,-1.060333 -2.042004,-1.379578c-0.908543,-0.6539 -1.356106,-0.984039 -2.194443,-1.635529c-1.059814,-0.823608 -1.593887,-1.264404 -2.209778,-1.843567c-0.765617,-0.719971 -1.398228,-1.384003 -1.861332,-1.847107c-0.688007,-0.688019 -1.486229,-1.486237 -1.972225,-1.972229c-0.69445,-0.694458 -1.459782,-1.29007 -1.865997,-2.161102c-0.293652,-0.629669 -0.686501,-1.563873 -1.024891,-2.133331c-0.526344,-0.885773 -0.732937,-1.8927 -1.164665,-2.400024c-0.720612,-0.846771 -1.31007,-1.328827 -1.972225,-2c-0.522694,-0.529816 -1.072067,-1.346863 -1.367107,-2.133331c-0.306812,-0.817841 -0.933937,-1.523773 -1.432892,-2.295105c-0.424747,-0.656647 -0.762779,-1.392761 -1.333332,-2.209778c-0.501621,-0.718323 -1.223324,-1.570374 -1.594002,-2.231995c-0.382553,-0.682831 -0.678535,-1.585114 -0.939331,-2.435333c-0.257736,-0.84024 -0.823021,-1.485962 -1.466446,-2.161102c-0.627575,-0.658508 -1.062874,-1.475128 -1.270443,-2.209564c-0.276752,-0.979187 -0.589157,-1.677368 -0.998222,-2.345123c-0.613907,-1.002167 -1.196716,-1.574158 -1.864891,-2.245331c-0.532135,-0.534515 -1.229115,-1.17392 -1.733334,-1.761108c-0.709457,-0.826202 -1.081772,-1.522278 -1.514664,-2.349121c-0.339634,-0.648712 -0.912895,-1.813568 -1.130669,-2.245331c-0.45327,-0.898682 -0.675911,-1.356445 -1.15111,-2.227753c-0.632042,-1.158875 -1.017561,-1.747772 -1.509109,-2.427795c-0.686739,-0.950043 -1.119015,-1.577545 -1.446445,-2.288452c-0.396917,-0.861786 -0.453724,-1.796661 -0.876667,-2.567108c-0.406532,-0.74054 -1.239481,-1.278748 -1.676888,-1.89444c-0.568787,-0.800629 -0.610317,-1.748718 -0.764668,-2.435333c-0.234856,-1.044708 -0.779667,-1.679932 -1.396444,-2.631989c-0.425201,-0.656342 -0.762798,-1.392761 -1.333334,-2.209778c-0.501633,-0.718353 -0.958138,-1.191132 -1.466667,-2.007111c-0.420929,-0.675415 -1.058683,-1.804993 -1.460667,-2.345123c-0.454189,-0.610291 -0.843168,-1.575043 -1.161554,-2.565094c-0.213078,-0.662598 -0.543636,-1.374481 -1.111113,-2.222229c-0.492874,-0.736298 -1.085779,-1.268738 -1.733334,-1.961548c-0.549995,-0.58844 -1.07069,-1.353424 -1.466666,-2.027802c-0.538828,-0.917664 -1.076695,-1.713135 -1.6,-2.399994c-0.543873,-0.713867 -0.963293,-1.352417 -1.285334,-2.065765c-0.473681,-1.049225 -0.55645,-1.95282 -0.876666,-2.862244c-0.242555,-0.688873 -0.607168,-1.392212 -1.171111,-2.209534c-0.47565,-0.689362 -1.034379,-1.496704 -1.234,-2.210022c-0.256125,-0.915222 -0.664159,-1.806396 -0.920889,-2.506653c-0.352037,-0.960236 -0.46099,-1.834503 -0.757334,-2.623993c-0.262116,-0.698303 -0.801189,-1.785675 -0.906666,-2.506683c-0.142249,-0.972382 -0.039177,-1.713287 -0.343112,-2.609772c-0.314073,-0.926392 -0.771333,-1.56485 -0.962,-2.562012c-0.190143,-0.994415 -0.076222,-1.703979 -0.076222,-2.771332c0,-0.671997 0.066909,-1.595581 -0.006,-2.561981c-0.056342,-0.746796 -0.647114,-1.511932 -0.948667,-2.190002c-0.433516,-0.974823 -0.375667,-1.94931 -0.378667,-2.790894c-0.003408,-0.955994 0,-1.895325 0,-2.828674c0,-0.799988 0,-1.605988 0,-2.380432c0,-1.023102 0,-1.949341 0,-2.791107c0,-0.862244 0,-1.790222 0,-2.695129c0,-0.687988 0.129234,-1.867401 -0.222222,-2.666656c-0.322513,-0.733459 -1.024064,-1.456818 -1.105111,-2.342896c-0.088274,-0.965118 -0.006,-1.657104 -0.006,-2.768219c0,-0.70755 0.000805,-1.689117 0,-2.565094c-0.000889,-0.967346 0.278605,-1.761993 -0.295111,-2.666901c-0.459002,-0.723969 -0.994445,-1.274109 -1.032222,-2.20224c-0.042883,-1.053574 -0.006,-1.840424 -0.006,-2.57843c0,-1.030884 0.017526,-1.879959 -0.001778,-2.854889c-0.01363,-0.688354 -0.179722,-1.820465 -0.565333,-2.506668c-0.493562,-0.878311 -0.752332,-1.514359 -0.766222,-2.447998c-0.011901,-0.799911 0,-1.733337 0,-2.666672c0,-0.799988 0,-1.733322 0,-2.666656c0,-0.800003 0,-1.733337 0,-2.666672c0,-0.800003 0,-1.733337 0,-2.670227c0,-0.815552 0,-1.78688 0,-2.744888c0,-0.698669 0,-1.40799 0,-2.737778c0,-0.599106 0,-1.441101 0,-2.51355c0,-0.785995 -0.067037,-1.755844 0.006,-2.723999c0.056338,-0.746796 0.64529,-1.512726 0.948667,-2.190002c0.436839,-0.975235 0.264445,-1.766495 0.674,-2.791107c0.297504,-0.744293 1.068005,-1.566833 1.432,-2.238007c0.391036,-0.721039 0.734419,-1.787155 0.827333,-2.323776c0.137817,-0.795959 0.1566,-1.619278 0.492444,-2.666672c0.262405,-0.818359 0.690101,-1.598953 1.086,-2.39978c0.388062,-0.784973 0.780637,-1.505661 1.088223,-2.553101c0.224165,-0.763367 0.60429,-1.834808 1.445333,-2.291565c0.698077,-0.37912 1.218853,-0.869751 1.777777,-1.777771c0.427759,-0.694931 0.93645,-1.073944 1.46489,-1.799118c0.674663,-0.925842 0.786536,-1.763702 1.338666,-2.511993c0.428855,-0.581223 1.158044,-1.205948 1.761556,-1.809555c0.752055,-0.752167 1.215839,-1.168854 1.842,-1.889999c0.737948,-0.849899 1.065307,-1.58461 1.148667,-2.567108c0.056507,-0.665985 0.389957,-1.702301 1.068222,-2.152893c0.714022,-0.47435 1.415968,-0.903503 1.820446,-1.713776c0.375074,-0.751373 1.134432,-1.541946 1.50511,-2.203552c0.382553,-0.682816 0.545033,-1.640518 0.939335,-2.407562c0.407789,-0.793274 1.073782,-1.34494 1.712,-1.943558c0.650373,-0.610031 1.044224,-1.164474 1.545111,-1.873779c0.503851,-0.713501 0.988846,-1.138916 1.854,-2.015991c0.53928,-0.546722 1.005474,-1.185654 1.521778,-2.074677c0.452993,-0.780014 1.402119,-0.991104 2.061556,-1.536438c0.515686,-0.426468 1.277037,-1.262177 1.739332,-1.697342c0.685528,-0.645294 1.501545,-1.386459 2.351997,-1.551987c0.930717,-0.181137 1.884163,-0.245605 2.442669,-0.609787c0.736824,-0.480453 1.485531,-0.909409 2.43911,-1.271103c0.658707,-0.249847 1.289875,-0.525909 2.580002,-0.738007c0.808098,-0.132843 1.788631,-0.013443 2.552887,-0.371338c0.811485,-0.38002 1.638435,-0.855637 2.540001,-0.96199c0.656776,-0.077484 1.635555,-0.075333 2.698666,-0.076233c0.732445,-0.00061 1.694641,0.027954 2.627556,0c0.801079,-0.024002 1.551929,-0.452881 2.266666,-0.863098c0.910999,-0.522858 1.694221,-0.46933 2.760891,-0.47023c0.668442,-0.000565 1.400887,0 2.175999,0c1.195999,0 1.984444,0 2.740891,0c1.028,0 2.094669,0 2.976887,0c0.945335,0 1.878891,0 2.593338,0c0.91378,0 1.818665,0 2.506668,0c1.130669,0 2.112,0 2.912003,0c0.933327,0 1.866684,-0.006195 2.666664,0c0.919197,0.007111 1.460022,0.637741 2.112,1.221329c0.599884,0.536957 1.195595,0.900284 1.81778,1.515564c0.620476,0.613586 0.405731,1.682236 0.584,2.443558c0.192261,0.82106 0.580666,1.513992 0.954666,2.287994l0.531555,1.06311l0.400002,0.774002l0.266663,0.484894" id="svg_6" stroke-width="5" stroke="#000000" fill="none"/>
  <path transform="rotate(-7.53838, 271.68, 408.689)" d="m168.291641,410.631958c0,0 0,0.980164 0,2.123688c0,1.143524 0,2.123688 0,3.267212c0,1.143433 0,2.123627 0,3.26712c0,1.143585 0,2.123718 0,3.267273c0,1.143463 -0.110153,2.367523 0.768814,2.743042c0.933777,0.398987 1.712921,-0.400696 2.307388,-1.135651c0.646088,-0.798767 1.396973,-1.393555 2.090164,-2.097504c0.692444,-0.703278 0.359238,-1.954865 0.863998,-2.801025c0.53334,-0.894135 1.230072,-1.47226 1.356781,-2.589874c0.13205,-1.164612 0.859344,-1.884125 1.290375,-2.94046c0.316528,-0.775726 0.611038,-2.085632 1.361938,-2.637695c0.790466,-0.581116 1.546906,-1.118683 2.01535,-2.099701c0.431061,-0.90274 1.474289,-1.636841 2.186859,-2.123688c0.722183,-0.493408 1.482849,-1.421906 2.066544,-2.193634c0.5457,-0.721466 1.179764,-1.479858 1.938843,-2.138367c0.660172,-0.572784 1.673508,-0.992615 2.449097,-1.780396c0.577667,-0.58667 1.445343,-1.565521 2.035812,-2.218903c0.590424,-0.653473 1.180603,-1.307129 1.771301,-1.960358c1.178421,-1.30307 1.737198,-1.94809 2.308624,-2.496094c0.958435,-0.919159 1.819595,-1.267395 2.538895,-1.698944c0.93576,-0.561462 1.613068,-1.407074 2.408981,-2.06488c0.849777,-0.702393 1.747711,-0.810608 2.796738,-0.945282c1.131866,-0.145325 1.826828,-0.57605 2.603836,-0.921326c1.177185,-0.523193 2.125946,-0.64856 2.991547,-1.158813c0.865143,-0.509979 1.893341,-1.03244 2.655029,-1.169617c0.761673,-0.137207 1.792587,-0.682343 2.780945,-1.169678c0.852203,-0.420227 1.905579,-0.428345 2.877426,-0.463959c1.063522,-0.03894 1.418304,-1.031006 2.249329,-1.540161c0.962357,-0.589691 1.9048,-0.089233 2.899551,-0.455017c0.775299,-0.285065 1.577774,-0.786957 2.772614,-1.073517c0.859329,-0.206146 1.940842,-0.197388 3.015671,-0.198425c0.82045,-0.000916 1.886459,0 2.839767,0c0.97226,0 1.991745,0 3.071274,0c0.745911,0 1.825455,0 2.844925,0c0.97226,0 1.989761,-0.125244 2.989609,0.463867c0.805313,0.474518 1.627548,1.118195 2.487717,1.16748c1.124557,0.064484 2.209076,-0.131836 2.959335,0.578339c0.772751,0.731445 1.308243,1.075348 2.352661,1.52356c0.78064,0.334961 1.544708,0.809174 2.596207,1.650177c0.682632,0.546021 1.850555,0.889618 2.469757,1.614868c0.677658,0.793732 1.463669,1.414185 1.593445,2.320465c0.163193,1.139679 0.239578,2.394287 0.527237,3.182526c0.313522,0.859222 0.548019,2.269867 0.992905,3.104919c0.488678,0.917175 1.36586,1.443359 1.43898,2.526642c0.066284,0.981842 0.624054,1.888123 1.056641,2.7771c0.523407,1.075653 0.41922,2.287018 0.41922,3.267242c0,1.143463 0,2.289185 0,3.197205c0,1.189514 0,2.064301 0,3.012573c0,1.302521 0,2.552765 0,3.64621c0,1.055023 -0.01358,2.232697 0,3.212769c0.015381,1.109772 0.643005,2.005463 1.623444,1.960022c0.915436,-0.04245 1.191681,-1.113617 1.855957,-2.116028c0.533142,-0.804565 1.588898,-1.044128 2.255768,-1.427521c0.94696,-0.544495 1.701202,-1.432281 2.326782,-2.025116c1.031464,-0.977478 1.800537,-1.619354 2.194214,-1.938263c0.780365,-0.63205 1.557037,-1.192902 2.817627,-2.259003c0.706146,-0.597198 1.361053,-1.279083 2.293396,-1.627594c1.090759,-0.407776 1.849274,-0.590393 2.603821,-1.03894c0.994934,-0.591522 1.764862,-1.278534 2.397217,-1.942902c0.757935,-0.796478 1.583069,-1.573212 2.485718,-1.82309c0.952362,-0.263733 1.836639,-0.777679 2.487701,-1.306915c0.880463,-0.715485 1.802368,-0.388947 2.873505,-0.927887c0.920593,-0.463226 1.805969,-0.925171 2.782959,-1.441895c0.800293,-0.423279 1.650604,-1.075531 2.509338,-1.447357c0.922119,-0.399292 1.611237,-1.117279 2.509399,-1.506195c1.020691,-0.441986 1.646301,-0.96817 2.85379,-1.674957c0.623596,-0.36499 1.344666,-0.667877 2.452301,-1.050171c0.984253,-0.339722 2.004822,-0.511993 2.912811,-0.720673c0.853943,-0.196228 1.891571,-0.564117 2.629425,-0.801514c1.350952,-0.434601 2.117401,-0.645996 3.023041,-0.692627c1.036102,-0.053375 2.072479,-0.002197 2.892914,-0.002197c1.072876,0 2.092377,0 3.278931,0c0.739014,0 1.804993,0 2.625488,0c1.072906,0 2.092377,0 3.279144,0c0.769531,0 1.981903,0 2.725891,0c1.01947,0 2.098969,0 2.84491,0c1.079529,0 2.09906,0 3.285583,0c0.739014,0 1.80307,0 2.68869,0c1.064026,0 2.245636,0 2.989594,0c1.019501,0 2.092377,0 2.912842,0c1.035217,0 2.107361,0.178772 2.954163,-0.139404c0.963959,-0.362213 1.751404,-1.340302 2.710144,-1.476746c1.003235,-0.142883 2.115479,-0.349609 2.997437,0.254852c0.770111,0.527771 1.399963,1.199738 1.930756,2.073517c0.583374,0.960388 0.934814,1.905853 1.661072,2.718292c0.58728,0.656952 1.396454,1.404297 2.035828,2.287079c0.665588,0.918976 0.744232,1.877716 1.095734,2.975311c0.270081,0.843414 0.646179,1.727081 1.44635,2.931702c0.436737,0.657501 1.424927,1.716431 1.893311,2.234802c0.761719,0.842896 1.280609,1.403534 2.206055,2.441711c0.572937,0.64267 1.245667,1.454102 1.80304,2.461243c0.473267,0.855072 0.882996,1.824554 1.328522,2.800812c0.440186,0.964508 0.842651,1.898682 1.476074,2.905853c0.554077,0.881134 1.342194,1.931702 1.784607,2.764099c0.354553,0.667053 0.738922,1.483337 1.512024,2.988342c0.306244,0.59613 0.637177,1.229187 1.354095,2.557159c0.365784,0.67749 0.725891,1.351013 1.448517,2.609406c0.632782,1.101837 1.139374,1.987305 1.810211,2.865295c0.758667,0.992981 1.521423,1.5047 2.029633,2.586548c0.358826,0.763885 0.665253,1.955902 1.302887,2.661682l0.543243,-0.70578" id="svg_7" stroke-width="5" stroke="#000000" fill="#ffffff"/>
 </g>
</svg>